HIERARCHY
ROOT Hips
{
	OFFSET 0.000000 83.214638 0.000000
	CHANNELS 6 Xposition Yposition Zposition Xrotation Yrotation Zrotation
	JOINT Pelvis
	{
		OFFSET 0.000000 0.000000 0.000000
		CHANNELS 3 Xrotation Yrotation Zrotation
		JOINT LeftUpLeg
		{
			OFFSET 8.479700 -4.795502 -0.379100
			CHANNELS 3 Xrotation Yrotation Zrotation
			JOINT LeftLeg
			{
				OFFSET 0.024144 -32.555107 0.112900
				CHANNELS 3 Xrotation Yrotation Zrotation
				JOINT LeftFoot
				{
					OFFSET -0.024144 -32.638630 -3.012600
					CHANNELS 3 Xrotation Yrotation Zrotation
					JOINT LeftToeBase
					{
						OFFSET 0.970200 -13.225400 11.864200
						CHANNELS 3 Xrotation Yrotation Zrotation
						End Site
						{
							OFFSET 0.000000 12.319262 0.000000
						}
					}
					JOINT LFootTongue
					{
						OFFSET 1.142400 -1.059800 6.665200
						CHANNELS 3 Xrotation Yrotation Zrotation
						End Site
						{
							OFFSET 0.000000 12.319262 0.000000
						}
					}
				}
				JOINT LeftPantLeg
				{
					OFFSET 0.918482 -16.533964 -2.284700
					CHANNELS 3 Xrotation Yrotation Zrotation
					End Site
					{
						OFFSET 0.350399 24.744368 0.000000
					}
				}
			}
		}
		JOINT RightUpLeg
		{
			OFFSET -8.479700 -4.795502 -0.379100
			CHANNELS 3 Xrotation Yrotation Zrotation
			JOINT RightLeg
			{
				OFFSET -0.023144 -32.555092 0.112900
				CHANNELS 3 Xrotation Yrotation Zrotation
				JOINT RightFoot
				{
					OFFSET 0.023144 -32.638641 -3.012700
					CHANNELS 3 Xrotation Yrotation Zrotation
					JOINT RightToeBase
					{
						OFFSET -0.970200 -13.225400 11.864200
						CHANNELS 3 Xrotation Yrotation Zrotation
						End Site
						{
							OFFSET 0.000000 12.319244 0.000000
						}
					}
					JOINT RFootTongue
					{
						OFFSET -1.142200 -1.059800 6.665200
						CHANNELS 3 Xrotation Yrotation Zrotation
						End Site
						{
							OFFSET 0.000000 12.319243 0.000000
						}
					}
				}
				JOINT RightPantLeg
				{
					OFFSET -0.919482 -16.533978 -2.284800
					CHANNELS 3 Xrotation Yrotation Zrotation
					End Site
					{
						OFFSET -0.350400 24.744419 0.000000
					}
				}
			}
		}
	}
	JOINT Spine
	{
		OFFSET 0.000000 7.722000 1.166200
		CHANNELS 3 Xrotation Yrotation Zrotation
		JOINT Spine1
		{
			OFFSET 0.000000 12.024101 0.248800
			CHANNELS 3 Xrotation Yrotation Zrotation
			JOINT Spine2
			{
				OFFSET 0.000000 11.502998 -0.491200
				CHANNELS 3 Xrotation Yrotation Zrotation
				JOINT Neck
				{
					OFFSET 0.000000 18.430702 -3.123100
					CHANNELS 3 Xrotation Yrotation Zrotation
					JOINT Head
					{
						OFFSET 0.000000 9.051102 1.034000
						CHANNELS 3 Xrotation Yrotation Zrotation
						JOINT HairB
						{
							OFFSET 0.208400 24.786102 24.822300
							CHANNELS 3 Xrotation Yrotation Zrotation
							End Site
							{
								OFFSET 0.000000 32.263779 0.000000
							}
						}
						JOINT HairA
						{
							OFFSET -7.081100 24.428299 23.196600
							CHANNELS 3 Xrotation Yrotation Zrotation
							End Site
							{
								OFFSET 0.000000 32.263779 0.000000
							}
						}
						JOINT Hat
						{
							OFFSET 16.728800 15.048294 -15.439601
							CHANNELS 3 Xrotation Yrotation Zrotation
							End Site
							{
								OFFSET 0.000000 32.263779 0.000000
							}
						}
					}
				}
				JOINT LeftShoulder
				{
					OFFSET 6.197800 13.665199 -4.064700
					CHANNELS 3 Xrotation Yrotation Zrotation
					JOINT LeftArm
					{
						OFFSET 7.778100 -0.187103 -1.709300
						CHANNELS 3 Xrotation Yrotation Zrotation
						JOINT LeftForeArm
						{
							OFFSET 22.049376 0.000000 0.000000
							CHANNELS 3 Xrotation Yrotation Zrotation
							JOINT LeftHand
							{
								OFFSET 23.009392 0.000000 0.000000
								CHANNELS 3 Xrotation Yrotation Zrotation
								JOINT LeftHandThumb1
								{
									OFFSET 3.507191 -2.063065 3.133727
									CHANNELS 3 Xrotation Yrotation Zrotation
									JOINT LeftHandThumb2
									{
										OFFSET 3.101337 -1.790558 1.790558
										CHANNELS 3 Xrotation Yrotation Zrotation
										JOINT LeftHandThumb3
										{
											OFFSET 3.058640 -1.765907 1.765906
											CHANNELS 3 Xrotation Yrotation Zrotation
											End Site
											{
												OFFSET -0.415260 3.926476 -0.049563
											}
										}
									}
								}
								JOINT LeftHandIndex1
								{
									OFFSET 11.334419 -0.901459 3.706815
									CHANNELS 3 Xrotation Yrotation Zrotation
									JOINT LeftHandIndex2
									{
										OFFSET 3.283112 0.000000 0.000000
										CHANNELS 3 Xrotation Yrotation Zrotation
										JOINT LeftHandIndex3
										{
											OFFSET 3.323853 0.000000 0.000000
											CHANNELS 3 Xrotation Yrotation Zrotation
											End Site
											{
												OFFSET -1.135597 3.097809 0.402452
											}
										}
									}
								}
								JOINT LeftHandMiddle1
								{
									OFFSET 11.335861 0.000000 0.000000
									CHANNELS 3 Xrotation Yrotation Zrotation
									JOINT LeftHandMiddle2
									{
										OFFSET 3.410492 0.000000 0.000000
										CHANNELS 3 Xrotation Yrotation Zrotation
										JOINT LeftHandMiddle3
										{
											OFFSET 3.312172 0.000000 0.000000
											CHANNELS 3 Xrotation Yrotation Zrotation
											End Site
											{
												OFFSET -1.150200 3.080154 0.400270
											}
										}
									}
								}
								JOINT LeftHandRing1
								{
									OFFSET 11.514786 -0.013176 -3.003090
									CHANNELS 3 Xrotation Yrotation Zrotation
									JOINT LeftHandRing2
									{
										OFFSET 3.053307 0.000000 0.000000
										CHANNELS 3 Xrotation Yrotation Zrotation
										JOINT LeftHandRing3
										{
											OFFSET 3.295807 0.000000 0.000000
											CHANNELS 3 Xrotation Yrotation Zrotation
											End Site
											{
												OFFSET -1.281006 3.013344 0.375733
											}
										}
									}
								}
								JOINT LeftHandPinky1
								{
									OFFSET 10.518692 -0.960396 -5.730441
									CHANNELS 3 Xrotation Yrotation Zrotation
									JOINT LeftHandPinky2
									{
										OFFSET 2.861649 0.000000 0.000000
										CHANNELS 3 Xrotation Yrotation Zrotation
										JOINT LeftHandPinky3
										{
											OFFSET 2.863380 0.000000 0.000000
											CHANNELS 3 Xrotation Yrotation Zrotation
											End Site
											{
												OFFSET -0.843597 2.711159 0.369971
											}
										}
									}
								}
							}
							JOINT LSleeve
							{
								OFFSET 6.676277 -0.344902 -1.011730
								CHANNELS 3 Xrotation Yrotation Zrotation
								End Site
								{
									OFFSET 0.000000 14.885353 0.000000
								}
							}
						}
					}
				}
				JOINT RightShoulder
				{
					OFFSET -6.197800 13.665199 -4.064700
					CHANNELS 3 Xrotation Yrotation Zrotation
					JOINT RightArm
					{
						OFFSET -7.778100 -0.187103 -1.709300
						CHANNELS 3 Xrotation Yrotation Zrotation
						JOINT RightForeArm
						{
							OFFSET -22.049376 0.000000 0.000000
							CHANNELS 3 Xrotation Yrotation Zrotation
							JOINT RightHand
							{
								OFFSET -23.009392 0.000000 0.000000
								CHANNELS 3 Xrotation Yrotation Zrotation
								JOINT RightHandThumb1
								{
									OFFSET -3.507191 -2.063065 3.133727
									CHANNELS 3 Xrotation Yrotation Zrotation
									JOINT RightHandThumb2
									{
										OFFSET -3.101337 -1.790558 1.790558
										CHANNELS 3 Xrotation Yrotation Zrotation
										JOINT RightHandThumb3
										{
											OFFSET -3.058640 -1.765907 1.765906
											CHANNELS 3 Xrotation Yrotation Zrotation
											End Site
											{
												OFFSET 0.415260 3.926476 -0.049563
											}
										}
									}
								}
								JOINT RightHandIndex1
								{
									OFFSET -11.334419 -0.901459 3.706815
									CHANNELS 3 Xrotation Yrotation Zrotation
									JOINT RightHandIndex2
									{
										OFFSET -3.283112 0.000000 0.000000
										CHANNELS 3 Xrotation Yrotation Zrotation
										JOINT RightHandIndex3
										{
											OFFSET -3.323853 0.000000 0.000000
											CHANNELS 3 Xrotation Yrotation Zrotation
											End Site
											{
												OFFSET 1.135597 3.097809 0.402452
											}
										}
									}
								}
								JOINT RightHandMiddle1
								{
									OFFSET -11.335861 0.000000 0.000000
									CHANNELS 3 Xrotation Yrotation Zrotation
									JOINT RightHandMiddle2
									{
										OFFSET -3.410492 0.000000 0.000000
										CHANNELS 3 Xrotation Yrotation Zrotation
										JOINT RightHandMiddle3
										{
											OFFSET -3.312172 0.000000 0.000000
											CHANNELS 3 Xrotation Yrotation Zrotation
											End Site
											{
												OFFSET 1.150200 3.080154 0.400270
											}
										}
									}
								}
								JOINT RightHandRing1
								{
									OFFSET -11.514786 -0.013176 -3.003090
									CHANNELS 3 Xrotation Yrotation Zrotation
									JOINT RightHandRing2
									{
										OFFSET -3.053307 0.000000 0.000000
										CHANNELS 3 Xrotation Yrotation Zrotation
										JOINT RightHandRing3
										{
											OFFSET -3.295807 0.000000 0.000000
											CHANNELS 3 Xrotation Yrotation Zrotation
											End Site
											{
												OFFSET 1.281006 3.013344 0.375733
											}
										}
									}
								}
								JOINT RightHandPinky1
								{
									OFFSET -10.518692 -0.960396 -5.730441
									CHANNELS 3 Xrotation Yrotation Zrotation
									JOINT RightHandPinky2
									{
										OFFSET -2.861649 0.000000 0.000000
										CHANNELS 3 Xrotation Yrotation Zrotation
										JOINT RightHandPinky3
										{
											OFFSET -2.863380 0.000000 0.000000
											CHANNELS 3 Xrotation Yrotation Zrotation
											End Site
											{
												OFFSET 0.843597 2.711159 0.369971
											}
										}
									}
								}
							}
							JOINT RSleeve
							{
								OFFSET -6.676277 -0.344902 -1.011730
								CHANNELS 3 Xrotation Yrotation Zrotation
								End Site
								{
									OFFSET 0.000000 14.885353 0.000000
								}
							}
						}
					}
				}
				JOINT Backpack
				{
					OFFSET 0.000000 -2.471497 36.677502
					CHANNELS 3 Xrotation Yrotation Zrotation
					End Site
					{
						OFFSET 0.000000 20.427315 0.000000
					}
				}
				JOINT Hood
				{
					OFFSET 0.000000 18.754097 -10.431000
					CHANNELS 3 Xrotation Yrotation Zrotation
					JOINT Hood1
					{
						OFFSET 0.000000 -5.011002 -7.685901
						CHANNELS 3 Xrotation Yrotation Zrotation
						End Site
						{
							OFFSET 0.000000 9.175140 0.000000
						}
					}
				}
				JOINT LHoodieString
				{
					OFFSET 5.250500 16.397697 3.089900
					CHANNELS 3 Xrotation Yrotation Zrotation
					JOINT LHoodieString1
					{
						OFFSET 0.257700 -6.364304 3.694600
						CHANNELS 3 Xrotation Yrotation Zrotation
						JOINT LHoodieString2
						{
							OFFSET 0.000000 -9.643799 2.679100
							CHANNELS 3 Xrotation Yrotation Zrotation
							End Site
							{
								OFFSET 0.000000 10.009018 0.000000
							}
						}
					}
				}
				JOINT RHoodieString
				{
					OFFSET -5.250500 16.397697 3.089900
					CHANNELS 3 Xrotation Yrotation Zrotation
					JOINT RHoodieString1
					{
						OFFSET -0.257700 -6.364304 3.694600
						CHANNELS 3 Xrotation Yrotation Zrotation
						JOINT RHoodieString2
						{
							OFFSET 0.000000 -9.643799 2.679100
							CHANNELS 3 Xrotation Yrotation Zrotation
							End Site
							{
								OFFSET 0.000000 10.009018 0.000000
							}
						}
					}
				}
			}
			JOINT LBackpack_Strap
			{
				OFFSET 15.223200 -7.719803 -6.610900
				CHANNELS 3 Xrotation Yrotation Zrotation
				End Site
				{
					OFFSET 0.000000 16.040596 0.000000
				}
			}
			JOINT RBackpack_Strap
			{
				OFFSET -15.223000 -7.719803 -6.610900
				CHANNELS 3 Xrotation Yrotation Zrotation
				End Site
				{
					OFFSET 0.000000 16.040596 0.000000
				}
			}
		}
	}
	JOINT BoyFacialAnim_Joint
	{
		OFFSET 1.000000 -82.208099 -1.550900
		CHANNELS 3 Xrotation Yrotation Zrotation
		End Site
		{
			OFFSET 0.000000 30.012791 0.000000
		}
	}
}
MOTION
Frames: 4
Frame Time: 0.033333
-1.263451 73.700600 0.292622 -12.551810 -44.664161 -11.761000 -0.000000 0.000000 -0.000000 -30.356117 9.708438 29.839847 45.245898 -2.430171 0.890334 -6.093949 1.436555 -15.113385 0.000000 0.000002 0.000000 0.000000 0.000002 -0.000000 0.000001 0.000004 -0.000001 -13.593367 -10.050239 -10.559992 52.086032 -2.202945 -2.193637 -28.323527 -3.538946 11.716925 0.000000 0.000000 -0.000000 0.000000 0.000000 -0.000000 -0.000001 0.000001 0.000000 10.593096 0.965635 0.786290 7.973503 1.033138 -0.347312 7.975348 1.020848 -0.350128 12.009951 4.669048 -0.889082 -10.596863 26.688175 -1.976758 0.000002 0.000000 0.000001 0.000002 0.000000 0.000001 0.000002 0.000000 0.000001 0.628329 -4.051131 -6.879003 -58.948747 -12.148961 -48.485553 -0.000297 -101.418071 -0.000297 -9.245867 -8.008371 4.541864 -9.657085 -7.106351 -1.422057 19.705849 45.033070 -10.859150 -0.000001 0.000001 -0.000001 7.603122 6.843420 -96.036469 6.467280 6.868802 -86.543175 -0.000001 -0.000000 -0.000000 6.739385 6.879756 -88.816344 6.090050 6.835777 -83.382239 0.000002 0.000000 0.000000 8.113284 6.770502 -100.338894 6.847207 6.881119 -89.716358 0.000002 0.000001 -0.000000 11.609330 6.457301 -95.523146 5.840528 2.716044 -81.309427 -0.000000 0.000002 0.000000 -0.000000 0.000002 0.000002 4.572202 25.885027 8.220010 -60.689967 36.853829 70.942696 0.000226 104.748341 -0.000252 16.397500 2.121306 -5.183982 -5.408183 -12.406914 -4.471886 8.326176 -18.255543 0.487146 -0.000003 -0.000001 0.000001 2.417643 -6.770593 87.670211 6.247843 -6.913026 84.200503 -0.000000 -0.000002 -0.000000 7.337803 -6.937405 93.416429 6.583813 -6.938699 86.986291 -0.000000 0.000000 -0.000002 7.304747 -6.939675 93.679542 6.500026 -6.933837 86.292480 0.000001 -0.000001 -0.000002 6.801163 -6.946964 88.255825 7.071616 -6.947146 91.019777 -0.000000 0.000001 -0.000001 0.000000 0.000000 0.000001 0.000000 0.000003 -0.000001 0.000000 0.000003 -0.000001 0.000000 0.000003 -0.000001 0.000000 0.000003 -0.000001 0.000000 0.000003 -0.000001 -0.000000 0.000001 -0.000000 0.000000 0.000003 -0.000001 0.000000 0.000003 -0.000001 -0.000000 0.000001 -0.000000 -0.000000 -0.000000 0.000000 -0.000000 -0.000000 0.000000 -0.000000 0.000000 -0.000000 
-1.220767 73.632004 0.400723 -12.769185 -44.515089 -12.059298 0.000001 -0.000001 -0.000000 -30.511599 9.696682 30.093445 45.744523 -2.755149 0.811545 -6.389920 1.453037 -14.896894 0.000000 -0.000000 -0.000000 0.000000 -0.000000 0.000000 -0.000000 0.000002 -0.000000 -13.361005 -10.132370 -10.555181 52.156930 -2.178397 -2.152842 -28.399158 -3.574378 11.805426 0.000000 -0.000000 0.000000 0.000000 -0.000000 0.000000 -0.000000 0.000000 -0.000000 10.767161 0.930222 0.766683 8.122772 1.006201 -0.395364 8.124671 0.992880 -0.398001 12.178118 4.733511 -0.808598 -10.609796 26.926940 -1.559723 -0.000002 0.000001 0.000000 -0.000002 0.000001 0.000000 -0.000002 0.000001 0.000000 0.626547 -3.966742 -6.957607 -58.211155 -12.216254 -48.638808 0.000472 -101.509739 0.000437 -10.163814 -8.257068 4.313674 -9.610024 -7.035944 -1.430117 19.693611 45.017982 -10.849977 0.000000 -0.000001 0.000003 7.604984 6.843222 -96.052165 6.469809 6.868957 -86.564322 -0.000000 0.000001 -0.000002 6.739830 6.879757 -88.820169 6.090060 6.835791 -83.382321 0.000001 -0.000000 0.000002 8.115269 6.770144 -100.355799 6.846616 6.881105 -89.711523 -0.000001 -0.000003 0.000003 11.607539 6.458604 -95.507314 5.841520 2.716211 -81.317814 -0.000000 0.000002 0.000000 -0.000001 -0.000002 0.000001 4.509920 25.720121 8.231332 -60.292826 36.742309 70.445581 0.000244 104.356391 -0.000241 16.829101 1.956284 -4.775600 -5.362668 -12.469467 -4.434305 8.326144 -18.255403 0.487154 0.000000 0.000001 -0.000002 2.450799 -6.777740 87.749305 6.252124 -6.913448 84.236170 0.000000 -0.000001 -0.000000 7.353153 -6.936503 93.434891 6.581663 -6.938612 86.968409 0.000006 -0.000001 0.000003 7.312687 -6.939215 93.707668 6.494459 -6.933476 86.246370 -0.000000 0.000001 0.000002 6.774168 -6.946155 88.246509 7.064532 -6.947276 90.961249 -0.000001 0.000001 -0.000001 -0.000001 -0.000000 0.000000 0.000002 0.000001 -0.000001 0.000002 0.000001 -0.000001 0.000002 0.000001 -0.000001 0.000002 0.000001 -0.000001 0.000002 0.000001 0.000001 0.000000 -0.000001 -0.000000 0.000002 0.000001 -0.000001 0.000002 0.000001 0.000001 0.000000 -0.000001 -0.000000 0.000002 -0.000001 0.000000 0.000002 -0.000001 0.000000 0.000001 -0.000001 -0.000000 
-1.149986 73.821518 0.694808 -12.617464 -44.481228 -12.084910 0.000000 0.000002 -0.000000 -30.316560 9.806376 29.969661 45.496816 -2.658195 0.762267 -6.508659 1.447482 -14.703469 -0.000000 0.000000 -0.000000 -0.000000 0.000000 0.000000 0.000001 0.000001 -0.000001 -12.875043 -10.237356 -10.495760 51.184980 -2.191101 -2.266816 -27.956693 -3.608018 12.083127 0.000000 0.000000 -0.000000 0.000000 0.000000 -0.000000 -0.000000 -0.000000 0.000000 10.805054 0.913883 0.685388 8.151162 0.992844 -0.442887 8.152948 0.980158 -0.445602 12.275376 4.779812 -0.699218 -10.715999 27.096626 -1.191258 0.000002 -0.000000 0.000000 0.000002 -0.000000 0.000000 0.000002 -0.000000 0.000000 0.622732 -3.811735 -7.051660 -57.196742 -12.182139 -48.749953 -0.000583 -101.885788 -0.000567 -11.064165 -8.362316 4.007155 -9.621437 -7.118924 -1.289828 19.720853 45.051419 -10.870272 0.000001 0.000003 0.000005 7.612619 6.842420 -96.116095 6.473928 6.869211 -86.598643 -0.000003 -0.000002 -0.000002 6.745879 6.879884 -88.870528 6.090136 6.835788 -83.382888 0.000001 -0.000002 0.000002 8.122212 6.768881 -100.414572 6.846871 6.881118 -89.713585 0.000003 -0.000000 -0.000006 11.613693 6.454111 -95.561880 5.841641 2.716224 -81.318928 0.000001 0.000002 -0.000003 -0.000001 -0.000001 0.000001 4.446421 25.558482 8.239527 -59.946043 36.694013 69.987480 -0.000119 104.205157 0.000120 17.096522 1.809563 -4.453706 -5.277709 -12.593274 -4.417144 8.325452 -18.253785 0.486966 -0.000000 -0.000001 0.000001 2.457941 -6.782412 87.809110 6.252756 -6.913526 84.241456 -0.000002 0.000001 0.000000 7.365878 -6.935747 93.475531 6.578760 -6.938449 86.944347 0.000006 -0.000002 0.000003 7.314212 -6.939144 93.726274 6.489005 -6.933115 86.201065 -0.000002 -0.000003 -0.000002 6.758257 -6.945688 88.209680 7.058628 -6.947356 90.912318 0.000003 0.000003 0.000001 0.000001 0.000002 0.000001 -0.000000 -0.000002 0.000000 -0.000000 -0.000002 0.000000 -0.000000 -0.000002 0.000000 -0.000000 -0.000002 0.000000 -0.000000 -0.000002 -0.000000 -0.000000 -0.000000 0.000000 -0.000000 -0.000002 0.000000 -0.000000 -0.000002 -0.000000 -0.000000 -0.000000 0.000000 -0.000000 -0.000001 -0.000000 -0.000000 -0.000001 -0.000000 0.000000 0.000002 -0.000000 
-1.023127 74.200775 1.141663 -12.172508 -44.606152 -11.852156 -0.000000 0.000000 -0.000000 -29.850587 10.026744 29.513582 44.696324 -2.193182 0.692490 -6.507714 1.425380 -14.498878 0.000000 -0.000002 -0.000000 0.000000 -0.000002 0.000000 -0.000000 -0.000002 0.000001 -12.262688 -10.299083 -10.418537 49.415561 -2.231994 -2.581813 -27.081242 -3.647522 12.562258 0.000000 -0.000000 -0.000000 0.000000 -0.000000 -0.000000 -0.000003 0.000002 0.000000 10.659542 0.950611 0.535119 8.019528 1.022753 -0.482896 8.021010 1.012671 -0.486105 12.325875 4.798686 -0.591864 -10.938451 27.165906 -0.926268 0.000002 -0.000001 0.000001 0.000002 -0.000001 0.000001 0.000002 -0.000001 0.000001 0.615358 -3.500118 -7.049116 -56.037187 -11.948135 -48.795128 0.000083 -102.547203 0.000071 -11.650363 -8.266832 3.704555 -9.716571 -7.405717 -0.978743 19.790787 45.137169 -10.922463 -0.000000 -0.000000 0.000002 7.626337 6.840950 -96.231314 6.480440 6.869582 -86.653135 -0.000000 -0.000002 -0.000000 6.758100 6.880114 -88.972448 6.089859 6.835752 -83.380661 0.000003 -0.000000 0.000002 8.134071 6.766721 -100.515188 6.848134 6.881122 -89.724131 -0.000001 0.000000 -0.000000 11.629282 6.442681 -95.700786 5.840512 2.716051 -81.309290 0.000002 -0.000001 0.000001 -0.000001 -0.000000 0.000003 4.394963 25.468800 8.232828 -59.748309 36.659968 69.551051 -0.000124 104.343127 0.000102 17.065696 1.738728 -4.191132 -5.157131 -12.773072 -4.420577 8.324345 -18.251046 0.486736 0.000004 0.000003 -0.000004 2.440225 -6.784051 87.840256 6.250168 -6.913259 84.219675 -0.000001 0.000001 0.000000 7.375306 -6.935184 93.527624 6.575297 -6.938255 86.915544 0.000003 -0.000000 -0.000002 7.309965 -6.939425 93.729689 6.484042 -6.932789 86.160036 -0.000001 0.000002 0.000002 6.752611 -6.945538 88.140880 7.053902 -6.947445 90.873433 -0.000000 0.000001 -0.000003 0.000000 0.000000 -0.000002 0.000001 -0.000000 0.000000 0.000001 -0.000000 0.000000 0.000001 -0.000000 0.000000 0.000001 -0.000000 0.000000 0.000001 -0.000000 -0.000000 -0.000001 -0.000000 0.000000 0.000001 -0.000000 0.000000 0.000001 -0.000000 -0.000000 -0.000001 -0.000000 0.000000 -0.000000 0.000000 -0.000000 -0.000000 0.000000 -0.000000 -0.000000 0.000000 -0.000000 
